<mxfile host="Electron" modified="2023-08-21T17:27:57.331Z" agent="Mozilla/5.0 (X11; Linux x86_64) AppleWebKit/537.36 (KHTML, like Gecko) draw.io/21.6.5 Chrome/114.0.5735.134 Electron/25.6.0 Safari/537.36" etag="WRS2RQq__raY4Atmcx9x" version="21.6.5" type="device">
  <diagram name="Page-1" id="fsSMxkPmmuMEmQxBaY7_">
    <mxGraphModel dx="1969" dy="969" grid="1" gridSize="10" guides="1" tooltips="1" connect="1" arrows="1" fold="1" page="1" pageScale="1" pageWidth="850" pageHeight="1100" math="0" shadow="0">
      <root>
        <mxCell id="0" />
        <mxCell id="1" parent="0" />
        <mxCell id="Xyh0fk0as-N2dH3ys5Xe-9" style="edgeStyle=orthogonalEdgeStyle;rounded=0;orthogonalLoop=1;jettySize=auto;html=1;entryX=0;entryY=0.5;entryDx=0;entryDy=0;" edge="1" parent="1" source="Xyh0fk0as-N2dH3ys5Xe-5" target="Xyh0fk0as-N2dH3ys5Xe-8">
          <mxGeometry relative="1" as="geometry" />
        </mxCell>
        <mxCell id="Xyh0fk0as-N2dH3ys5Xe-18" style="edgeStyle=orthogonalEdgeStyle;rounded=0;orthogonalLoop=1;jettySize=auto;html=1;entryX=0;entryY=0.5;entryDx=0;entryDy=0;" edge="1" parent="1" source="Xyh0fk0as-N2dH3ys5Xe-5" target="Xyh0fk0as-N2dH3ys5Xe-10">
          <mxGeometry relative="1" as="geometry" />
        </mxCell>
        <mxCell id="Xyh0fk0as-N2dH3ys5Xe-5" value="" style="outlineConnect=0;dashed=0;verticalLabelPosition=bottom;verticalAlign=top;align=center;html=1;shape=mxgraph.aws3.users;fillColor=#D2D3D3;gradientColor=none;" vertex="1" parent="1">
          <mxGeometry x="50" y="163.5" width="66" height="63" as="geometry" />
        </mxCell>
        <mxCell id="Xyh0fk0as-N2dH3ys5Xe-6" value="Users" style="text;html=1;strokeColor=none;fillColor=none;align=center;verticalAlign=middle;whiteSpace=wrap;rounded=0;" vertex="1" parent="1">
          <mxGeometry x="50" y="230" width="60" height="30" as="geometry" />
        </mxCell>
        <mxCell id="Xyh0fk0as-N2dH3ys5Xe-15" value="" style="group" vertex="1" connectable="0" parent="1">
          <mxGeometry x="270" y="215" width="110" height="110" as="geometry" />
        </mxCell>
        <mxCell id="Xyh0fk0as-N2dH3ys5Xe-10" value="" style="whiteSpace=wrap;html=1;aspect=fixed;" vertex="1" parent="Xyh0fk0as-N2dH3ys5Xe-15">
          <mxGeometry width="110" height="110" as="geometry" />
        </mxCell>
        <mxCell id="Xyh0fk0as-N2dH3ys5Xe-12" value="" style="verticalLabelPosition=bottom;verticalAlign=top;html=1;shadow=0;dashed=0;strokeWidth=1;shape=mxgraph.android.phone2;strokeColor=#c0c0c0;" vertex="1" parent="Xyh0fk0as-N2dH3ys5Xe-15">
          <mxGeometry x="36.25" y="18.25" width="37.5" height="73.5" as="geometry" />
        </mxCell>
        <mxCell id="Xyh0fk0as-N2dH3ys5Xe-17" value="" style="group" vertex="1" connectable="0" parent="1">
          <mxGeometry x="270" y="100" width="110" height="110" as="geometry" />
        </mxCell>
        <mxCell id="Xyh0fk0as-N2dH3ys5Xe-8" value="" style="whiteSpace=wrap;html=1;aspect=fixed;" vertex="1" parent="Xyh0fk0as-N2dH3ys5Xe-17">
          <mxGeometry width="110" height="110" as="geometry" />
        </mxCell>
        <mxCell id="Xyh0fk0as-N2dH3ys5Xe-16" value="" style="image;points=[];aspect=fixed;html=1;align=center;shadow=0;dashed=0;image=img/lib/allied_telesis/computer_and_terminals/Personal_Computer.svg;" vertex="1" parent="Xyh0fk0as-N2dH3ys5Xe-17">
          <mxGeometry x="32.19999999999999" y="24.099999999999994" width="45.6" height="61.800000000000004" as="geometry" />
        </mxCell>
        <mxCell id="Xyh0fk0as-N2dH3ys5Xe-33" value="" style="group" vertex="1" connectable="0" parent="1">
          <mxGeometry x="70" y="670" width="327" height="140" as="geometry" />
        </mxCell>
        <mxCell id="Xyh0fk0as-N2dH3ys5Xe-7" value="" style="image;aspect=fixed;perimeter=ellipsePerimeter;html=1;align=center;shadow=0;dashed=0;spacingTop=3;image=img/lib/active_directory/user.svg;" vertex="1" parent="Xyh0fk0as-N2dH3ys5Xe-33">
          <mxGeometry x="11.5" y="5" width="37" height="100" as="geometry" />
        </mxCell>
        <mxCell id="Xyh0fk0as-N2dH3ys5Xe-19" value="" style="group" vertex="1" connectable="0" parent="Xyh0fk0as-N2dH3ys5Xe-33">
          <mxGeometry x="217" width="110" height="110" as="geometry" />
        </mxCell>
        <mxCell id="Xyh0fk0as-N2dH3ys5Xe-20" value="" style="whiteSpace=wrap;html=1;aspect=fixed;" vertex="1" parent="Xyh0fk0as-N2dH3ys5Xe-19">
          <mxGeometry width="110" height="110" as="geometry" />
        </mxCell>
        <mxCell id="Xyh0fk0as-N2dH3ys5Xe-21" value="" style="image;points=[];aspect=fixed;html=1;align=center;shadow=0;dashed=0;image=img/lib/allied_telesis/computer_and_terminals/Personal_Computer.svg;" vertex="1" parent="Xyh0fk0as-N2dH3ys5Xe-19">
          <mxGeometry x="32.19999999999999" y="24.099999999999994" width="45.6" height="61.800000000000004" as="geometry" />
        </mxCell>
        <mxCell id="Xyh0fk0as-N2dH3ys5Xe-23" style="edgeStyle=orthogonalEdgeStyle;rounded=0;orthogonalLoop=1;jettySize=auto;html=1;entryX=0;entryY=0.5;entryDx=0;entryDy=0;" edge="1" parent="Xyh0fk0as-N2dH3ys5Xe-33" source="Xyh0fk0as-N2dH3ys5Xe-7" target="Xyh0fk0as-N2dH3ys5Xe-20">
          <mxGeometry relative="1" as="geometry" />
        </mxCell>
        <mxCell id="Xyh0fk0as-N2dH3ys5Xe-29" value="Manager" style="text;html=1;strokeColor=none;fillColor=none;align=center;verticalAlign=middle;whiteSpace=wrap;rounded=0;" vertex="1" parent="Xyh0fk0as-N2dH3ys5Xe-33">
          <mxGeometry y="110" width="60" height="30" as="geometry" />
        </mxCell>
        <mxCell id="Xyh0fk0as-N2dH3ys5Xe-34" value="" style="group" vertex="1" connectable="0" parent="1">
          <mxGeometry x="64" y="450" width="333" height="140" as="geometry" />
        </mxCell>
        <mxCell id="Xyh0fk0as-N2dH3ys5Xe-24" value="" style="group" vertex="1" connectable="0" parent="Xyh0fk0as-N2dH3ys5Xe-34">
          <mxGeometry x="223" width="110" height="110" as="geometry" />
        </mxCell>
        <mxCell id="Xyh0fk0as-N2dH3ys5Xe-25" value="" style="whiteSpace=wrap;html=1;aspect=fixed;" vertex="1" parent="Xyh0fk0as-N2dH3ys5Xe-24">
          <mxGeometry width="110" height="110" as="geometry" />
        </mxCell>
        <mxCell id="Xyh0fk0as-N2dH3ys5Xe-26" value="" style="image;points=[];aspect=fixed;html=1;align=center;shadow=0;dashed=0;image=img/lib/allied_telesis/computer_and_terminals/Personal_Computer.svg;" vertex="1" parent="Xyh0fk0as-N2dH3ys5Xe-24">
          <mxGeometry x="32.19999999999999" y="24.099999999999994" width="45.6" height="61.800000000000004" as="geometry" />
        </mxCell>
        <mxCell id="Xyh0fk0as-N2dH3ys5Xe-30" style="edgeStyle=orthogonalEdgeStyle;rounded=0;orthogonalLoop=1;jettySize=auto;html=1;entryX=-0.023;entryY=0.552;entryDx=0;entryDy=0;entryPerimeter=0;" edge="1" parent="Xyh0fk0as-N2dH3ys5Xe-34" source="Xyh0fk0as-N2dH3ys5Xe-27" target="Xyh0fk0as-N2dH3ys5Xe-25">
          <mxGeometry relative="1" as="geometry" />
        </mxCell>
        <mxCell id="Xyh0fk0as-N2dH3ys5Xe-27" value="" style="outlineConnect=0;dashed=0;verticalLabelPosition=bottom;verticalAlign=top;align=center;html=1;shape=mxgraph.aws3.users;fillColor=#ACACAC;gradientColor=none;" vertex="1" parent="Xyh0fk0as-N2dH3ys5Xe-34">
          <mxGeometry y="28.5" width="66" height="63" as="geometry" />
        </mxCell>
        <mxCell id="Xyh0fk0as-N2dH3ys5Xe-28" value="Servers" style="text;html=1;strokeColor=none;fillColor=none;align=center;verticalAlign=middle;whiteSpace=wrap;rounded=0;" vertex="1" parent="Xyh0fk0as-N2dH3ys5Xe-34">
          <mxGeometry x="3" y="110" width="60" height="30" as="geometry" />
        </mxCell>
        <mxCell id="Xyh0fk0as-N2dH3ys5Xe-36" value="" style="group" vertex="1" connectable="0" parent="1">
          <mxGeometry x="580" y="10" width="270" height="850" as="geometry" />
        </mxCell>
        <mxCell id="Xyh0fk0as-N2dH3ys5Xe-1" value="" style="rounded=0;whiteSpace=wrap;html=1;" vertex="1" parent="Xyh0fk0as-N2dH3ys5Xe-36">
          <mxGeometry width="270" height="850" as="geometry" />
        </mxCell>
        <mxCell id="Xyh0fk0as-N2dH3ys5Xe-35" value="User Experience" style="text;html=1;strokeColor=none;fillColor=none;align=center;verticalAlign=middle;whiteSpace=wrap;rounded=0;" vertex="1" parent="Xyh0fk0as-N2dH3ys5Xe-36">
          <mxGeometry x="72.5" width="125" height="30" as="geometry" />
        </mxCell>
        <mxCell id="Xyh0fk0as-N2dH3ys5Xe-42" value="Authentication" style="rounded=0;whiteSpace=wrap;html=1;" vertex="1" parent="Xyh0fk0as-N2dH3ys5Xe-36">
          <mxGeometry x="30" y="90" width="200" height="110" as="geometry" />
        </mxCell>
        <mxCell id="Xyh0fk0as-N2dH3ys5Xe-55" value="Queue Actions" style="rounded=0;whiteSpace=wrap;html=1;" vertex="1" parent="Xyh0fk0as-N2dH3ys5Xe-36">
          <mxGeometry x="30" y="260" width="200" height="110" as="geometry" />
        </mxCell>
        <mxCell id="Xyh0fk0as-N2dH3ys5Xe-63" value="Queue Actions" style="rounded=0;whiteSpace=wrap;html=1;" vertex="1" parent="Xyh0fk0as-N2dH3ys5Xe-36">
          <mxGeometry x="35" y="450" width="200" height="110" as="geometry" />
        </mxCell>
        <mxCell id="Xyh0fk0as-N2dH3ys5Xe-37" value="" style="rounded=0;whiteSpace=wrap;html=1;" vertex="1" parent="1">
          <mxGeometry x="880" y="10" width="270" height="850" as="geometry" />
        </mxCell>
        <mxCell id="Xyh0fk0as-N2dH3ys5Xe-38" value="Middleware" style="text;html=1;strokeColor=none;fillColor=none;align=center;verticalAlign=middle;whiteSpace=wrap;rounded=0;" vertex="1" parent="1">
          <mxGeometry x="967.5" y="10" width="115" height="30" as="geometry" />
        </mxCell>
        <mxCell id="Xyh0fk0as-N2dH3ys5Xe-41" value="" style="group" vertex="1" connectable="0" parent="1">
          <mxGeometry x="1180" y="10" width="270" height="850" as="geometry" />
        </mxCell>
        <mxCell id="Xyh0fk0as-N2dH3ys5Xe-40" value="" style="rounded=0;whiteSpace=wrap;html=1;" vertex="1" parent="Xyh0fk0as-N2dH3ys5Xe-41">
          <mxGeometry width="270" height="850" as="geometry" />
        </mxCell>
        <mxCell id="Xyh0fk0as-N2dH3ys5Xe-39" value="Backend Resource" style="text;html=1;strokeColor=none;fillColor=none;align=center;verticalAlign=middle;whiteSpace=wrap;rounded=0;" vertex="1" parent="Xyh0fk0as-N2dH3ys5Xe-41">
          <mxGeometry x="77.5" width="115" height="30" as="geometry" />
        </mxCell>
        <mxCell id="Xyh0fk0as-N2dH3ys5Xe-49" value="Database" style="rounded=0;whiteSpace=wrap;html=1;" vertex="1" parent="Xyh0fk0as-N2dH3ys5Xe-41">
          <mxGeometry x="35" y="320" width="200" height="110" as="geometry" />
        </mxCell>
        <mxCell id="Xyh0fk0as-N2dH3ys5Xe-51" style="edgeStyle=orthogonalEdgeStyle;rounded=0;orthogonalLoop=1;jettySize=auto;html=1;entryX=0;entryY=0.5;entryDx=0;entryDy=0;" edge="1" parent="1" source="Xyh0fk0as-N2dH3ys5Xe-42" target="Xyh0fk0as-N2dH3ys5Xe-49">
          <mxGeometry relative="1" as="geometry" />
        </mxCell>
        <mxCell id="Xyh0fk0as-N2dH3ys5Xe-52" style="edgeStyle=orthogonalEdgeStyle;rounded=0;orthogonalLoop=1;jettySize=auto;html=1;entryX=0;entryY=0.5;entryDx=0;entryDy=0;" edge="1" parent="1" source="Xyh0fk0as-N2dH3ys5Xe-8" target="Xyh0fk0as-N2dH3ys5Xe-42">
          <mxGeometry relative="1" as="geometry" />
        </mxCell>
        <mxCell id="Xyh0fk0as-N2dH3ys5Xe-54" style="edgeStyle=orthogonalEdgeStyle;rounded=0;orthogonalLoop=1;jettySize=auto;html=1;curved=1;entryX=-0.007;entryY=0.624;entryDx=0;entryDy=0;entryPerimeter=0;" edge="1" parent="1">
          <mxGeometry relative="1" as="geometry">
            <mxPoint x="608.5999999999999" y="170.03000000000011" as="targetPoint" />
            <mxPoint x="380" y="271.33117647058805" as="sourcePoint" />
            <Array as="points">
              <mxPoint x="380" y="290" />
              <mxPoint x="530" y="290" />
              <mxPoint x="530" y="170" />
            </Array>
          </mxGeometry>
        </mxCell>
        <mxCell id="Xyh0fk0as-N2dH3ys5Xe-56" style="edgeStyle=orthogonalEdgeStyle;rounded=0;orthogonalLoop=1;jettySize=auto;html=1;" edge="1" parent="1" source="Xyh0fk0as-N2dH3ys5Xe-55" target="Xyh0fk0as-N2dH3ys5Xe-49">
          <mxGeometry relative="1" as="geometry" />
        </mxCell>
        <mxCell id="Xyh0fk0as-N2dH3ys5Xe-64" style="edgeStyle=orthogonalEdgeStyle;rounded=0;orthogonalLoop=1;jettySize=auto;html=1;entryX=0;entryY=0.75;entryDx=0;entryDy=0;curved=1;" edge="1" parent="1" source="Xyh0fk0as-N2dH3ys5Xe-25" target="Xyh0fk0as-N2dH3ys5Xe-42">
          <mxGeometry relative="1" as="geometry" />
        </mxCell>
        <mxCell id="Xyh0fk0as-N2dH3ys5Xe-65" style="edgeStyle=orthogonalEdgeStyle;rounded=0;orthogonalLoop=1;jettySize=auto;html=1;entryX=0;entryY=0.5;entryDx=0;entryDy=0;curved=1;" edge="1" parent="1" source="Xyh0fk0as-N2dH3ys5Xe-20" target="Xyh0fk0as-N2dH3ys5Xe-42">
          <mxGeometry relative="1" as="geometry">
            <Array as="points">
              <mxPoint x="530" y="700" />
              <mxPoint x="530" y="155" />
            </Array>
          </mxGeometry>
        </mxCell>
        <mxCell id="Xyh0fk0as-N2dH3ys5Xe-66" style="edgeStyle=orthogonalEdgeStyle;rounded=0;orthogonalLoop=1;jettySize=auto;html=1;entryX=0;entryY=0.5;entryDx=0;entryDy=0;" edge="1" parent="1" source="Xyh0fk0as-N2dH3ys5Xe-8" target="Xyh0fk0as-N2dH3ys5Xe-55">
          <mxGeometry relative="1" as="geometry" />
        </mxCell>
        <mxCell id="Xyh0fk0as-N2dH3ys5Xe-68" style="edgeStyle=orthogonalEdgeStyle;rounded=0;orthogonalLoop=1;jettySize=auto;html=1;entryX=0.011;entryY=0.383;entryDx=0;entryDy=0;entryPerimeter=0;" edge="1" parent="1" source="Xyh0fk0as-N2dH3ys5Xe-10" target="Xyh0fk0as-N2dH3ys5Xe-55">
          <mxGeometry relative="1" as="geometry" />
        </mxCell>
      </root>
    </mxGraphModel>
  </diagram>
</mxfile>
